<svg width="140" height="101" viewBox="0 0 140 101" fill="none" xmlns="http://www.w3.org/2000/svg">
<g id="Group">
<path id="Vector" style="mix-blend-mode:screen" opacity="0.5" d="M99.8832 75.3106C113.735 61.4587 113.735 39.0003 99.8832 25.1484C86.0313 11.2965 63.5729 11.2965 49.721 25.1484C35.8691 39.0003 35.8691 61.4587 49.721 75.3106C63.5729 89.1625 86.0313 89.1625 99.8832 75.3106Z" fill="url(#paint0_radial_1_2764)"/>
<g id="Vector_2" style="mix-blend-mode:screen" opacity="0.5">
<path d="M40.46 47.48C49.523 47.48 56.87 40.133 56.87 31.07C56.87 22.007 49.523 14.66 40.46 14.66C31.397 14.66 24.05 22.007 24.05 31.07C24.05 40.133 31.397 47.48 40.46 47.48Z" fill="#F15407"/>
</g>
<g id="Vector_3" style="mix-blend-mode:screen" opacity="0.5">
<path fill-rule="evenodd" clip-rule="evenodd" d="M139.73 76.46C140.164 78.1856 140.076 80.001 139.479 81.6769C138.881 83.3528 137.8 84.814 136.372 85.8758C134.945 86.9376 133.234 87.5524 131.457 87.6425C129.68 87.7326 127.917 87.294 126.389 86.3821C124.861 85.4701 123.638 84.1258 122.874 82.519C122.11 80.9121 121.839 79.1148 122.096 77.3542C122.353 75.5936 123.126 73.9487 124.317 72.6273C125.509 71.3058 127.065 70.3672 128.79 69.93C129.937 69.6392 131.13 69.5775 132.301 69.7484C133.472 69.9193 134.598 70.3195 135.614 70.926C136.63 71.5326 137.517 72.3336 138.223 73.2832C138.929 74.2327 139.441 75.3123 139.73 76.46Z" fill="#F18907"/>
</g>
<g id="Vector_4" style="mix-blend-mode:screen" opacity="0.5">
<path d="M12.6305 19.7911C15.5675 17.8545 16.3785 13.9036 14.4419 10.9666C12.5053 8.02951 8.55439 7.2185 5.61735 9.15512C2.68031 11.0917 1.86932 15.0426 3.80595 17.9797C5.74257 20.9167 9.69344 21.7277 12.6305 19.7911Z" fill="#F18907"/>
</g>
<g id="Vector_5" style="mix-blend-mode:screen" opacity="0.3">
<path fill-rule="evenodd" clip-rule="evenodd" d="M25.47 7.01001L13.62 10L10.28 21.77L18.81 30.54L30.66 27.54L33.99 15.78L25.47 7.01001Z" fill="#F15407"/>
</g>
<g id="Vector_6" style="mix-blend-mode:screen" opacity="0.3">
<path fill-rule="evenodd" clip-rule="evenodd" d="M126.65 53.7L114.79 56.7L111.46 68.46L119.99 77.23L131.84 74.24L135.17 62.47L126.65 53.7Z" fill="#F15407"/>
</g>
</g>
<defs>
<radialGradient id="paint0_radial_1_2764" cx="0" cy="0" r="1" gradientUnits="userSpaceOnUse" gradientTransform="translate(74.8952 48.7714) rotate(-14.3311) scale(35.4647)">
<stop offset="0.91"/>
<stop offset="1" stop-color="#FFB400"/>
</radialGradient>
</defs>
</svg>
